<svg width="3126" height="1424" viewBox="0 0 3126 1424" fill="none" xmlns="http://www.w3.org/2000/svg">
<path opacity="0.2" d="M71.0015 1.32031H-0.0664062V72.3883M71.0015 1.32031V72.3883M71.0015 1.32031H142.069M71.0015 72.3883H-0.0664062M71.0015 72.3883V143.456M71.0015 72.3883H142.069M-0.0664062 72.3883V143.456M71.0015 143.456H-0.0664062M71.0015 143.456V214.524M71.0015 143.456H142.069M-0.0664062 143.456V214.524M71.0015 214.524H-0.0664062M71.0015 214.524V285.592M71.0015 214.524H142.069M-0.0664062 214.524V285.592M71.0015 285.592H-0.0664062M71.0015 285.592V356.66M71.0015 285.592H142.069M-0.0664062 285.592V356.66M71.0015 356.66H-0.0664062M71.0015 356.66V427.728M71.0015 356.66H142.069M-0.0664062 356.66V427.728M71.0015 427.728H-0.0664062M71.0015 427.728V498.796M71.0015 427.728H142.069M-0.0664062 427.728V498.796M71.0015 498.796H-0.0664062M71.0015 498.796V569.864M71.0015 498.796H142.069M-0.0664062 498.796V569.864M71.0015 569.864H-0.0664062M71.0015 569.864V640.932M71.0015 569.864H142.069M-0.0664062 569.864V640.932M71.0015 640.932H-0.0664062M71.0015 640.932V712M71.0015 640.932H142.069M-0.0664062 640.932V712M71.0015 712H-0.0664062M71.0015 712V783.068M71.0015 712H142.069M-0.0664062 712V783.068M71.0015 783.068H-0.0664062M71.0015 783.068V854.136M71.0015 783.068H142.069M-0.0664062 783.068V854.136M71.0015 854.136H-0.0664062M71.0015 854.136V925.204M71.0015 854.136H142.069M-0.0664062 854.136V925.204M71.0015 925.204H-0.0664062M71.0015 925.204V996.272M71.0015 925.204H142.069M-0.0664062 925.204V996.272M71.0015 996.272H-0.0664062M71.0015 996.272V1067.34M71.0015 996.272H142.069M-0.0664062 996.272V1067.34M71.0015 1067.34H-0.0664062M71.0015 1067.34V1138.41M71.0015 1067.34H142.069M-0.0664062 1067.34V1138.41M71.0015 1138.41H-0.0664062M71.0015 1138.41V1209.48M71.0015 1138.41H142.069M-0.0664062 1138.41V1209.48M71.0015 1209.48H-0.0664062M71.0015 1209.48V1280.54M71.0015 1209.48H142.069M-0.0664062 1209.48V1280.54M71.0015 1280.54H-0.0664062M71.0015 1280.54V1351.61M71.0015 1280.54H142.069M-0.0664062 1280.54V1351.61M71.0015 1351.61H-0.0664062M71.0015 1351.61V1422.68M71.0015 1351.61H142.069M-0.0664062 1351.61V1422.68H71.0015M71.0015 1422.68H142.069M142.069 1.32031V72.3883M142.069 1.32031H213.137M142.069 72.3883V143.456M142.069 72.3883H213.137M142.069 143.456V214.524M142.069 143.456H213.137M142.069 214.524V285.592M142.069 214.524H213.137M142.069 285.592V356.66M142.069 285.592H213.137M142.069 356.66V427.728M142.069 356.66H213.137M142.069 427.728V498.796M142.069 427.728H213.137M142.069 498.796V569.864M142.069 498.796H213.137M142.069 569.864V640.932M142.069 569.864H213.137M142.069 640.932V712M142.069 640.932H213.137M142.069 712V783.068M142.069 712H213.137M142.069 783.068V854.136M142.069 783.068H213.137M142.069 854.136V925.204M142.069 854.136H213.137M142.069 925.204V996.272M142.069 925.204H213.137M142.069 996.272V1067.34M142.069 996.272H213.137M142.069 1067.34V1138.41M142.069 1067.34H213.137M142.069 1138.41V1209.48M142.069 1138.41H213.137M142.069 1209.48V1280.54M142.069 1209.48H213.137M142.069 1280.54V1351.61M142.069 1280.54H213.137M142.069 1351.61V1422.68M142.069 1351.61H213.137M142.069 1422.68H213.137M213.137 1.32031V72.3883M213.137 1.32031H284.205M213.137 72.3883V143.456M213.137 72.3883H284.205M213.137 143.456V214.524M213.137 143.456H284.205M213.137 214.524V285.592M213.137 214.524H284.205M213.137 285.592V356.66M213.137 285.592H284.205M213.137 356.66V427.728M213.137 356.66H284.205M213.137 427.728V498.796M213.137 427.728H284.205M213.137 498.796V569.864M213.137 498.796H284.205M213.137 569.864V640.932M213.137 569.864H284.205M213.137 640.932V712M213.137 640.932H284.205M213.137 712V783.068M213.137 712H284.205M213.137 783.068V854.136M213.137 783.068H284.205M213.137 854.136V925.204M213.137 854.136H284.205M213.137 925.204V996.272M213.137 925.204H284.205M213.137 996.272V1067.34M213.137 996.272H284.205M213.137 1067.34V1138.41M213.137 1067.34H284.205M213.137 1138.41V1209.48M213.137 1138.41H284.205M213.137 1209.48V1280.54M213.137 1209.48H284.205M213.137 1280.54V1351.61M213.137 1280.54H284.205M213.137 1351.61V1422.68M213.137 1351.61H284.205M213.137 1422.68H284.205M284.205 1.32031V72.3883M284.205 1.32031H355.273M284.205 72.3883V143.456M284.205 72.3883H355.273M284.205 143.456V214.524M284.205 143.456H355.273M284.205 214.524V285.592M284.205 214.524H355.273M284.205 285.592V356.66M284.205 285.592H355.273M284.205 356.66V427.728M284.205 356.66H355.273M284.205 427.728V498.796M284.205 427.728H355.273M284.205 498.796V569.864M284.205 498.796H355.273M284.205 569.864V640.932M284.205 569.864H355.273M284.205 640.932V712M284.205 640.932H355.273M284.205 712V783.068M284.205 712H355.273M284.205 783.068V854.136M284.205 783.068H355.273M284.205 854.136V925.204M284.205 854.136H355.273M284.205 925.204V996.272M284.205 925.204H355.273M284.205 996.272V1067.34M284.205 996.272H355.273M284.205 1067.34V1138.41M284.205 1067.34H355.273M284.205 1138.41V1209.48M284.205 1138.41H355.273M284.205 1209.48V1280.54M284.205 1209.48H355.273M284.205 1280.54V1351.61M284.205 1280.54H355.273M284.205 1351.61V1422.68M284.205 1351.61H355.273M284.205 1422.68H355.273M355.273 1.32031V72.3883M355.273 1.32031H426.341M355.273 72.3883V143.456M355.273 72.3883H426.341M355.273 143.456V214.524M355.273 143.456H426.341M355.273 214.524V285.592M355.273 214.524H426.341M355.273 285.592V356.66M355.273 285.592H426.341M355.273 356.66V427.728M355.273 356.66H426.341M355.273 427.728V498.796M355.273 427.728H426.341M355.273 498.796V569.864M355.273 498.796H426.341M355.273 569.864V640.932M355.273 569.864H426.341M355.273 640.932V712M355.273 640.932H426.341M355.273 712V783.068M355.273 712H426.341M355.273 783.068V854.136M355.273 783.068H426.341M355.273 854.136V925.204M355.273 854.136H426.341M355.273 925.204V996.272M355.273 925.204H426.341M355.273 996.272V1067.34M355.273 996.272H426.341M355.273 1067.34V1138.41M355.273 1067.34H426.341M355.273 1138.41V1209.48M355.273 1138.41H426.341M355.273 1209.48V1280.54M355.273 1209.48H426.341M355.273 1280.54V1351.61M355.273 1280.54H426.341M355.273 1351.61V1422.68M355.273 1351.61H426.341M355.273 1422.68H426.341M426.341 1.32031V72.3883M426.341 1.32031H497.409M426.341 72.3883V143.456M426.341 72.3883H497.409M426.341 143.456V214.524M426.341 143.456H497.409M426.341 214.524V285.592M426.341 214.524H497.409M426.341 285.592V356.66M426.341 285.592H497.409M426.341 356.66V427.728M426.341 356.66H497.409M426.341 427.728V498.796M426.341 427.728H497.409M426.341 498.796V569.864M426.341 498.796H497.409M426.341 569.864V640.932M426.341 569.864H497.409M426.341 640.932V712M426.341 640.932H497.409M426.341 712V783.068M426.341 712H497.409M426.341 783.068V854.136M426.341 783.068H497.409M426.341 854.136V925.204M426.341 854.136H497.409M426.341 925.204V996.272M426.341 925.204H497.409M426.341 996.272V1067.34M426.341 996.272H497.409M426.341 1067.34V1138.41M426.341 1067.34H497.409M426.341 1138.41V1209.48M426.341 1138.41H497.409M426.341 1209.48V1280.54M426.341 1209.48H497.409M426.341 1280.54V1351.61M426.341 1280.54H497.409M426.341 1351.61V1422.68M426.341 1351.61H497.409M426.341 1422.68H497.409M497.409 1.32031V72.3883M497.409 1.32031H568.477M497.409 72.3883V143.456M497.409 72.3883H568.477M497.409 143.456V214.524M497.409 143.456H568.477M497.409 214.524V285.592M497.409 214.524H568.477M497.409 285.592V356.66M497.409 285.592H568.477M497.409 356.66V427.728M497.409 356.66H568.477M497.409 427.728V498.796M497.409 427.728H568.477M497.409 498.796V569.864M497.409 498.796H568.477M497.409 569.864V640.932M497.409 569.864H568.477M497.409 640.932V712M497.409 640.932H568.477M497.409 712V783.068M497.409 712H568.477M497.409 783.068V854.136M497.409 783.068H568.477M497.409 854.136V925.204M497.409 854.136H568.477M497.409 925.204V996.272M497.409 925.204H568.477M497.409 996.272V1067.34M497.409 996.272H568.477M497.409 1067.34V1138.41M497.409 1067.34H568.477M497.409 1138.41V1209.48M497.409 1138.41H568.477M497.409 1209.48V1280.54M497.409 1209.48H568.477M497.409 1280.54V1351.61M497.409 1280.54H568.477M497.409 1351.61V1422.68M497.409 1351.61H568.477M497.409 1422.68H568.477M568.477 1.32031V72.3883M568.477 1.32031H639.545M568.477 72.3883V143.456M568.477 72.3883H639.545M568.477 143.456V214.524M568.477 143.456H639.545M568.477 214.524V285.592M568.477 214.524H639.545M568.477 285.592V356.66M568.477 285.592H639.545M568.477 356.66V427.728M568.477 356.66H639.545M568.477 427.728V498.796M568.477 427.728H639.545M568.477 498.796V569.864M568.477 498.796H639.545M568.477 569.864V640.932M568.477 569.864H639.545M568.477 640.932V712M568.477 640.932H639.545M568.477 712V783.068M568.477 712H639.545M568.477 783.068V854.136M568.477 783.068H639.545M568.477 854.136V925.204M568.477 854.136H639.545M568.477 925.204V996.272M568.477 925.204H639.545M568.477 996.272V1067.34M568.477 996.272H639.545M568.477 1067.34V1138.41M568.477 1067.34H639.545M568.477 1138.41V1209.48M568.477 1138.41H639.545M568.477 1209.48V1280.54M568.477 1209.48H639.545M568.477 1280.54V1351.61M568.477 1280.54H639.545M568.477 1351.61V1422.68M568.477 1351.61H639.545M568.477 1422.68H639.545M639.545 1.32031V72.3883M639.545 1.32031H710.613M639.545 72.3883V143.456M639.545 72.3883H710.613M639.545 143.456V214.524M639.545 143.456H710.613M639.545 214.524V285.592M639.545 214.524H710.613M639.545 285.592V356.66M639.545 285.592H710.613M639.545 356.66V427.728M639.545 356.66H710.613M639.545 427.728V498.796M639.545 427.728H710.613M639.545 498.796V569.864M639.545 498.796H710.613M639.545 569.864V640.932M639.545 569.864H710.613M639.545 640.932V712M639.545 640.932H710.613M639.545 712V783.068M639.545 712H710.613M639.545 783.068V854.136M639.545 783.068H710.613M639.545 854.136V925.204M639.545 854.136H710.613M639.545 925.204V996.272M639.545 925.204H710.613M639.545 996.272V1067.34M639.545 996.272H710.613M639.545 1067.34V1138.41M639.545 1067.34H710.613M639.545 1138.41V1209.48M639.545 1138.41H710.613M639.545 1209.48V1280.54M639.545 1209.48H710.613M639.545 1280.54V1351.61M639.545 1280.54H710.613M639.545 1351.61V1422.68M639.545 1351.61H710.613M639.545 1422.68H710.613M710.613 1.32031V72.3883M710.613 1.32031H781.681M710.613 72.3883V143.456M710.613 72.3883H781.681M710.613 143.456V214.524M710.613 143.456H781.681M710.613 214.524V285.592M710.613 214.524H781.681M710.613 285.592V356.66M710.613 285.592H781.681M710.613 356.66V427.728M710.613 356.66H781.681M710.613 427.728V498.796M710.613 427.728H781.681M710.613 498.796V569.864M710.613 498.796H781.681M710.613 569.864V640.932M710.613 569.864H781.681M710.613 640.932V712M710.613 640.932H781.681M710.613 712V783.068M710.613 712H781.681M710.613 783.068V854.136M710.613 783.068H781.681M710.613 854.136V925.204M710.613 854.136H781.681M710.613 925.204V996.272M710.613 925.204H781.681M710.613 996.272V1067.34M710.613 996.272H781.681M710.613 1067.34V1138.41M710.613 1067.34H781.681M710.613 1138.41V1209.48M710.613 1138.41H781.681M710.613 1209.48V1280.54M710.613 1209.48H781.681M710.613 1280.54V1351.61M710.613 1280.54H781.681M710.613 1351.61V1422.68M710.613 1351.61H781.681M710.613 1422.68H781.681M781.681 1.32031V72.3883M781.681 1.32031H852.749M781.681 72.3883V143.456M781.681 72.3883H852.749M781.681 143.456V214.524M781.681 143.456H852.749M781.681 214.524V285.592M781.681 214.524H852.749M781.681 285.592V356.66M781.681 285.592H852.749M781.681 356.66V427.728M781.681 356.66H852.749M781.681 427.728V498.796M781.681 427.728H852.749M781.681 498.796V569.864M781.681 498.796H852.749M781.681 569.864V640.932M781.681 569.864H852.749M781.681 640.932V712M781.681 640.932H852.749M781.681 712V783.068M781.681 712H852.749M781.681 783.068V854.136M781.681 783.068H852.749M781.681 854.136V925.204M781.681 854.136H852.749M781.681 925.204V996.272M781.681 925.204H852.749M781.681 996.272V1067.34M781.681 996.272H852.749M781.681 1067.34V1138.41M781.681 1067.34H852.749M781.681 1138.41V1209.48M781.681 1138.41H852.749M781.681 1209.48V1280.54M781.681 1209.48H852.749M781.681 1280.54V1351.61M781.681 1280.54H852.749M781.681 1351.61V1422.68M781.681 1351.61H852.749M781.681 1422.68H852.749M852.749 1.32031V72.3883M852.749 1.32031H923.817M852.749 72.3883V143.456M852.749 72.3883H923.817M852.749 143.456V214.524M852.749 143.456H923.817M852.749 214.524V285.592M852.749 214.524H923.817M852.749 285.592V356.66M852.749 285.592H923.817M852.749 356.66V427.728M852.749 356.66H923.817M852.749 427.728V498.796M852.749 427.728H923.817M852.749 498.796V569.864M852.749 498.796H923.817M852.749 569.864V640.932M852.749 569.864H923.817M852.749 640.932V712M852.749 640.932H923.817M852.749 712V783.068M852.749 712H923.817M852.749 783.068V854.136M852.749 783.068H923.817M852.749 854.136V925.204M852.749 854.136H923.817M852.749 925.204V996.272M852.749 925.204H923.817M852.749 996.272V1067.34M852.749 996.272H923.817M852.749 1067.34V1138.41M852.749 1067.34H923.817M852.749 1138.41V1209.48M852.749 1138.41H923.817M852.749 1209.48V1280.54M852.749 1209.48H923.817M852.749 1280.54V1351.61M852.749 1280.54H923.817M852.749 1351.61V1422.68M852.749 1351.61H923.817M852.749 1422.68H923.817M923.817 1.32031V72.3883M923.817 1.32031H994.885M923.817 72.3883V143.456M923.817 72.3883H994.885M923.817 143.456V214.524M923.817 143.456H994.885M923.817 214.524V285.592M923.817 214.524H994.885M923.817 285.592V356.66M923.817 285.592H994.885M923.817 356.66V427.728M923.817 356.66H994.885M923.817 427.728V498.796M923.817 427.728H994.885M923.817 498.796V569.864M923.817 498.796H994.885M923.817 569.864V640.932M923.817 569.864H994.885M923.817 640.932V712M923.817 640.932H994.885M923.817 712V783.068M923.817 712H994.885M923.817 783.068V854.136M923.817 783.068H994.885M923.817 854.136V925.204M923.817 854.136H994.885M923.817 925.204V996.272M923.817 925.204H994.885M923.817 996.272V1067.34M923.817 996.272H994.885M923.817 1067.34V1138.41M923.817 1067.34H994.885M923.817 1138.41V1209.48M923.817 1138.41H994.885M923.817 1209.48V1280.54M923.817 1209.48H994.885M923.817 1280.54V1351.61M923.817 1280.54H994.885M923.817 1351.61V1422.68M923.817 1351.61H994.885M923.817 1422.68H994.885M994.885 1.32031V72.3883M994.885 1.32031H1065.95M994.885 72.3883V143.456M994.885 72.3883H1065.95M994.885 143.456V214.524M994.885 143.456H1065.95M994.885 214.524V285.592M994.885 214.524H1065.95M994.885 285.592V356.66M994.885 285.592H1065.95M994.885 356.66V427.728M994.885 356.66H1065.95M994.885 427.728V498.796M994.885 427.728H1065.95M994.885 498.796V569.864M994.885 498.796H1065.95M994.885 569.864V640.932M994.885 569.864H1065.95M994.885 640.932V712M994.885 640.932H1065.95M994.885 712V783.068M994.885 712H1065.95M994.885 783.068V854.136M994.885 783.068H1065.95M994.885 854.136V925.204M994.885 854.136H1065.95M994.885 925.204V996.272M994.885 925.204H1065.95M994.885 996.272V1067.34M994.885 996.272H1065.95M994.885 1067.34V1138.41M994.885 1067.34H1065.95M994.885 1138.41V1209.48M994.885 1138.41H1065.95M994.885 1209.48V1280.54M994.885 1209.48H1065.95M994.885 1280.54V1351.61M994.885 1280.54H1065.95M994.885 1351.61V1422.68M994.885 1351.61H1065.95M994.885 1422.68H1065.95M1065.95 1.32031V72.3883M1065.95 1.32031H1137.02M1065.95 72.3883V143.456M1065.95 72.3883H1137.02M1065.95 143.456V214.524M1065.95 143.456H1137.02M1065.95 214.524V285.592M1065.95 214.524H1137.02M1065.95 285.592V356.66M1065.95 285.592H1137.02M1065.95 356.66V427.728M1065.95 356.66H1137.02M1065.95 427.728V498.796M1065.95 427.728H1137.02M1065.95 498.796V569.864M1065.95 498.796H1137.02M1065.95 569.864V640.932M1065.95 569.864H1137.02M1065.95 640.932V712M1065.95 640.932H1137.02M1065.95 712V783.068M1065.95 712H1137.02M1065.95 783.068V854.136M1065.95 783.068H1137.02M1065.95 854.136V925.204M1065.95 854.136H1137.02M1065.95 925.204V996.272M1065.95 925.204H1137.02M1065.95 996.272V1067.34M1065.95 996.272H1137.02M1065.95 1067.34V1138.41M1065.95 1067.34H1137.02M1065.95 1138.41V1209.48M1065.95 1138.41H1137.02M1065.95 1209.48V1280.54M1065.95 1209.48H1137.02M1065.95 1280.54V1351.61M1065.95 1280.54H1137.02M1065.95 1351.61V1422.68M1065.95 1351.61H1137.02M1065.95 1422.68H1137.02M1137.02 1.32031V72.3883M1137.02 1.32031H1208.09M1137.02 72.3883V143.456M1137.02 72.3883H1208.09M1137.02 143.456V214.524M1137.02 143.456H1208.09M1137.02 214.524V285.592M1137.02 214.524H1208.09M1137.02 285.592V356.66M1137.02 285.592H1208.09M1137.02 356.66V427.728M1137.02 356.66H1208.09M1137.02 427.728V498.796M1137.02 427.728H1208.09M1137.02 498.796V569.864M1137.02 498.796H1208.09M1137.02 569.864V640.932M1137.02 569.864H1208.09M1137.02 640.932V712M1137.02 640.932H1208.09M1137.02 712V783.068M1137.02 712H1208.09M1137.02 783.068V854.136M1137.02 783.068H1208.09M1137.02 854.136V925.204M1137.02 854.136H1208.09M1137.02 925.204V996.272M1137.02 925.204H1208.09M1137.02 996.272V1067.34M1137.02 996.272H1208.09M1137.02 1067.34V1138.41M1137.02 1067.34H1208.09M1137.02 1138.41V1209.48M1137.02 1138.41H1208.09M1137.02 1209.48V1280.54M1137.02 1209.48H1208.09M1137.02 1280.54V1351.61M1137.02 1280.54H1208.09M1137.02 1351.61V1422.68M1137.02 1351.61H1208.09M1137.02 1422.68H1208.09M1208.09 1.32031V72.3883M1208.09 1.32031H1279.16M1208.09 72.3883V143.456M1208.09 72.3883H1279.16M1208.09 143.456V214.524M1208.09 143.456H1279.16M1208.09 214.524V285.592M1208.09 214.524H1279.16M1208.09 285.592V356.66M1208.09 285.592H1279.16M1208.09 356.66V427.728M1208.09 356.66H1279.16M1208.09 427.728V498.796M1208.09 427.728H1279.16M1208.09 498.796V569.864M1208.09 498.796H1279.16M1208.09 569.864V640.932M1208.09 569.864H1279.16M1208.09 640.932V712M1208.09 640.932H1279.16M1208.09 712V783.068M1208.09 712H1279.16M1208.09 783.068V854.136M1208.09 783.068H1279.16M1208.09 854.136V925.204M1208.09 854.136H1279.16M1208.09 925.204V996.272M1208.09 925.204H1279.16M1208.09 996.272V1067.34M1208.09 996.272H1279.16M1208.09 1067.34V1138.41M1208.09 1067.34H1279.16M1208.09 1138.41V1209.48M1208.09 1138.41H1279.16M1208.09 1209.48V1280.54M1208.09 1209.48H1279.16M1208.09 1280.54V1351.61M1208.09 1280.54H1279.16M1208.09 1351.61V1422.68M1208.09 1351.61H1279.16M1208.09 1422.68H1279.16M1279.16 1.32031V72.3883M1279.16 1.32031H1350.22M1279.16 72.3883V143.456M1279.16 72.3883H1350.22M1279.16 143.456V214.524M1279.16 143.456H1350.22M1279.16 214.524V285.592M1279.16 214.524H1350.22M1279.16 285.592V356.66M1279.16 285.592H1350.22M1279.16 356.66V427.728M1279.16 356.66H1350.22M1279.16 427.728V498.796M1279.16 427.728H1350.22M1279.16 498.796V569.864M1279.16 498.796H1350.22M1279.16 569.864V640.932M1279.16 569.864H1350.22M1279.16 640.932V712M1279.16 640.932H1350.22M1279.16 712V783.068M1279.16 712H1350.22M1279.16 783.068V854.136M1279.16 783.068H1350.22M1279.16 854.136V925.204M1279.16 854.136H1350.22M1279.16 925.204V996.272M1279.16 925.204H1350.22M1279.16 996.272V1067.34M1279.16 996.272H1350.22M1279.16 1067.34V1138.41M1279.16 1067.34H1350.22M1279.16 1138.41V1209.48M1279.16 1138.41H1350.22M1279.16 1209.48V1280.54M1279.16 1209.48H1350.22M1279.16 1280.54V1351.61M1279.16 1280.54H1350.22M1279.16 1351.61V1422.68M1279.16 1351.61H1350.22M1279.16 1422.68H1350.22M1350.22 1.32031V72.3883M1350.22 1.32031H1421.29M1350.22 72.3883V143.456M1350.22 72.3883H1421.29M1350.22 143.456V214.524M1350.22 143.456H1421.29M1350.22 214.524V285.592M1350.22 214.524H1421.29M1350.22 285.592V356.66M1350.22 285.592H1421.29M1350.22 356.66V427.728M1350.22 356.66H1421.29M1350.22 427.728V498.796M1350.22 427.728H1421.29M1350.22 498.796V569.864M1350.22 498.796H1421.29M1350.22 569.864V640.932M1350.22 569.864H1421.29M1350.22 640.932V712M1350.22 640.932H1421.29M1350.22 712V783.068M1350.22 712H1421.29M1350.22 783.068V854.136M1350.22 783.068H1421.29M1350.22 854.136V925.204M1350.22 854.136H1421.29M1350.22 925.204V996.272M1350.22 925.204H1421.29M1350.22 996.272V1067.34M1350.22 996.272H1421.29M1350.22 1067.34V1138.41M1350.22 1067.34H1421.29M1350.22 1138.41V1209.48M1350.22 1138.41H1421.29M1350.22 1209.48V1280.54M1350.22 1209.48H1421.29M1350.22 1280.54V1351.61M1350.22 1280.54H1421.29M1350.22 1351.61V1422.68M1350.22 1351.61H1421.29M1350.22 1422.68H1421.29M1421.29 1.32031V72.3883M1421.29 1.32031H1492.36M1421.29 72.3883V143.456M1421.29 72.3883H1492.36M1421.29 143.456V214.524M1421.29 143.456H1492.36M1421.29 214.524V285.592M1421.29 214.524H1492.36M1421.29 285.592V356.66M1421.29 285.592H1492.36M1421.29 356.66V427.728M1421.29 356.66H1492.36M1421.29 427.728V498.796M1421.29 427.728H1492.36M1421.29 498.796V569.864M1421.29 498.796H1492.36M1421.29 569.864V640.932M1421.29 569.864H1492.36M1421.29 640.932V712M1421.29 640.932H1492.36M1421.29 712V783.068M1421.29 712H1492.36M1421.29 783.068V854.136M1421.29 783.068H1492.36M1421.29 854.136V925.204M1421.29 854.136H1492.36M1421.29 925.204V996.272M1421.29 925.204H1492.36M1421.29 996.272V1067.34M1421.29 996.272H1492.36M1421.29 1067.34V1138.41M1421.29 1067.34H1492.36M1421.29 1138.41V1209.48M1421.29 1138.41H1492.36M1421.29 1209.48V1280.54M1421.29 1209.48H1492.36M1421.29 1280.54V1351.61M1421.29 1280.54H1492.36M1421.29 1351.61V1422.68M1421.29 1351.61H1492.36M1421.29 1422.68H1492.36M1492.36 1.32031V72.3883M1492.36 1.32031H1563.43M1492.36 72.3883V143.456M1492.36 72.3883H1563.43M1492.36 143.456V214.524M1492.36 143.456H1563.43M1492.36 214.524V285.592M1492.36 214.524H1563.43M1492.36 285.592V356.66M1492.36 285.592H1563.43M1492.36 356.66V427.728M1492.36 356.66H1563.43M1492.36 427.728V498.796M1492.36 427.728H1563.43M1492.36 498.796V569.864M1492.36 498.796H1563.43M1492.36 569.864V640.932M1492.36 569.864H1563.43M1492.36 640.932V712M1492.36 640.932H1563.43M1492.36 712V783.068M1492.36 712H1563.43M1492.36 783.068V854.136M1492.36 783.068H1563.43M1492.36 854.136V925.204M1492.36 854.136H1563.43M1492.36 925.204V996.272M1492.36 925.204H1563.43M1492.36 996.272V1067.34M1492.36 996.272H1563.43M1492.36 1067.34V1138.41M1492.36 1067.34H1563.43M1492.36 1138.41V1209.48M1492.36 1138.41H1563.43M1492.36 1209.48V1280.54M1492.36 1209.48H1563.43M1492.36 1280.54V1351.61M1492.36 1280.54H1563.43M1492.36 1351.61V1422.68M1492.36 1351.61H1563.43M1492.36 1422.68H1563.43M1563.43 1.32031V72.3883M1563.43 1.32031H1634.5M1563.43 72.3883V143.456M1563.43 72.3883H1634.5M1563.43 143.456V214.524M1563.43 143.456H1634.5M1563.43 214.524V285.592M1563.43 214.524H1634.5M1563.43 285.592V356.66M1563.43 285.592H1634.5M1563.43 356.66V427.728M1563.43 356.66H1634.5M1563.43 427.728V498.796M1563.43 427.728H1634.5M1563.43 498.796V569.864M1563.43 498.796H1634.5M1563.43 569.864V640.932M1563.43 569.864H1634.5M1563.43 640.932V712M1563.43 640.932H1634.5M1563.43 712V783.068M1563.43 712H1634.5M1563.43 783.068V854.136M1563.43 783.068H1634.5M1563.43 854.136V925.204M1563.43 854.136H1634.5M1563.43 925.204V996.272M1563.43 925.204H1634.5M1563.43 996.272V1067.34M1563.43 996.272H1634.5M1563.43 1067.34V1138.41M1563.43 1067.34H1634.5M1563.43 1138.41V1209.48M1563.43 1138.41H1634.5M1563.43 1209.48V1280.54M1563.43 1209.48H1634.5M1563.43 1280.54V1351.61M1563.43 1280.54H1634.5M1563.43 1351.61V1422.68M1563.43 1351.61H1634.5M1563.43 1422.68H1634.5M1634.5 1.32031V72.3883M1634.5 1.32031H1705.56M1634.5 72.3883V143.456M1634.5 72.3883H1705.56M1634.5 143.456V214.524M1634.5 143.456H1705.56M1634.5 214.524V285.592M1634.5 214.524H1705.56M1634.5 285.592V356.66M1634.5 285.592H1705.56M1634.5 356.66V427.728M1634.5 356.66H1705.56M1634.5 427.728V498.796M1634.5 427.728H1705.56M1634.5 498.796V569.864M1634.5 498.796H1705.56M1634.5 569.864V640.932M1634.5 569.864H1705.56M1634.5 640.932V712M1634.5 640.932H1705.56M1634.5 712V783.068M1634.5 712H1705.56M1634.5 783.068V854.136M1634.5 783.068H1705.56M1634.5 854.136V925.204M1634.5 854.136H1705.56M1634.5 925.204V996.272M1634.5 925.204H1705.56M1634.5 996.272V1067.34M1634.5 996.272H1705.56M1634.5 1067.34V1138.41M1634.5 1067.34H1705.56M1634.5 1138.41V1209.48M1634.5 1138.41H1705.56M1634.5 1209.48V1280.54M1634.5 1209.48H1705.56M1634.5 1280.54V1351.61M1634.5 1280.54H1705.56M1634.5 1351.61V1422.68M1634.5 1351.61H1705.56M1634.5 1422.68H1705.56M1705.56 1.32031V72.3883M1705.56 1.32031H1776.63M1705.56 72.3883V143.456M1705.56 72.3883H1776.63M1705.56 143.456V214.524M1705.56 143.456H1776.63M1705.56 214.524V285.592M1705.56 214.524H1776.63M1705.56 285.592V356.66M1705.56 285.592H1776.63M1705.56 356.66V427.728M1705.56 356.66H1776.63M1705.56 427.728V498.796M1705.56 427.728H1776.63M1705.56 498.796V569.864M1705.56 498.796H1776.63M1705.56 569.864V640.932M1705.56 569.864H1776.63M1705.56 640.932V712M1705.56 640.932H1776.63M1705.56 712V783.068M1705.56 712H1776.63M1705.56 783.068V854.136M1705.56 783.068H1776.63M1705.56 854.136V925.204M1705.56 854.136H1776.63M1705.56 925.204V996.272M1705.56 925.204H1776.63M1705.56 996.272V1067.34M1705.56 996.272H1776.63M1705.56 1067.34V1138.41M1705.56 1067.34H1776.63M1705.56 1138.41V1209.48M1705.56 1138.41H1776.63M1705.56 1209.48V1280.54M1705.56 1209.48H1776.63M1705.56 1280.54V1351.61M1705.56 1280.54H1776.63M1705.56 1351.61V1422.68M1705.56 1351.61H1776.63M1705.56 1422.68H1776.63M1776.63 1.32031V72.3883M1776.63 1.32031H1847.7M1776.63 72.3883V143.456M1776.63 72.3883H1847.7M1776.63 143.456V214.524M1776.63 143.456H1847.7M1776.63 214.524V285.592M1776.63 214.524H1847.7M1776.63 285.592V356.66M1776.63 285.592H1847.7M1776.63 356.66V427.728M1776.63 356.66H1847.7M1776.63 427.728V498.796M1776.63 427.728H1847.7M1776.63 498.796V569.864M1776.63 498.796H1847.7M1776.63 569.864V640.932M1776.63 569.864H1847.7M1776.63 640.932V712M1776.63 640.932H1847.7M1776.63 712V783.068M1776.63 712H1847.7M1776.63 783.068V854.136M1776.63 783.068H1847.7M1776.63 854.136V925.204M1776.63 854.136H1847.7M1776.63 925.204V996.272M1776.63 925.204H1847.7M1776.63 996.272V1067.34M1776.63 996.272H1847.7M1776.63 1067.34V1138.41M1776.63 1067.34H1847.7M1776.63 1138.41V1209.48M1776.63 1138.41H1847.7M1776.63 1209.48V1280.54M1776.63 1209.48H1847.7M1776.63 1280.54V1351.61M1776.63 1280.54H1847.7M1776.63 1351.61V1422.68M1776.63 1351.61H1847.7M1776.63 1422.68H1847.7M1847.7 1.32031V72.3883M1847.7 1.32031H1918.77M1847.7 72.3883V143.456M1847.7 72.3883H1918.77M1847.7 143.456V214.524M1847.7 143.456H1918.77M1847.7 214.524V285.592M1847.7 214.524H1918.77M1847.7 285.592V356.66M1847.7 285.592H1918.77M1847.7 356.66V427.728M1847.7 356.66H1918.77M1847.7 427.728V498.796M1847.7 427.728H1918.77M1847.7 498.796V569.864M1847.7 498.796H1918.77M1847.7 569.864V640.932M1847.7 569.864H1918.77M1847.7 640.932V712M1847.7 640.932H1918.77M1847.7 712V783.068M1847.7 712H1918.77M1847.7 783.068V854.136M1847.7 783.068H1918.77M1847.7 854.136V925.204M1847.7 854.136H1918.77M1847.7 925.204V996.272M1847.7 925.204H1918.77M1847.7 996.272V1067.34M1847.7 996.272H1918.77M1847.7 1067.34V1138.41M1847.7 1067.34H1918.77M1847.7 1138.41V1209.48M1847.7 1138.41H1918.77M1847.7 1209.48V1280.54M1847.7 1209.48H1918.77M1847.7 1280.54V1351.61M1847.7 1280.54H1918.77M1847.7 1351.61V1422.68M1847.7 1351.61H1918.77M1847.7 1422.68H1918.77M1918.77 1.32031V72.3883M1918.77 1.32031H1989.84M1918.77 72.3883V143.456M1918.77 72.3883H1989.84M1918.77 143.456V214.524M1918.77 143.456H1989.84M1918.77 214.524V285.592M1918.77 214.524H1989.84M1918.77 285.592V356.66M1918.77 285.592H1989.84M1918.77 356.66V427.728M1918.77 356.66H1989.84M1918.77 427.728V498.796M1918.77 427.728H1989.84M1918.77 498.796V569.864M1918.77 498.796H1989.84M1918.77 569.864V640.932M1918.77 569.864H1989.84M1918.77 640.932V712M1918.77 640.932H1989.84M1918.77 712V783.068M1918.77 712H1989.84M1918.77 783.068V854.136M1918.77 783.068H1989.84M1918.77 854.136V925.204M1918.77 854.136H1989.84M1918.77 925.204V996.272M1918.77 925.204H1989.84M1918.77 996.272V1067.34M1918.77 996.272H1989.84M1918.77 1067.34V1138.41M1918.77 1067.34H1989.84M1918.77 1138.41V1209.48M1918.77 1138.41H1989.84M1918.77 1209.48V1280.54M1918.77 1209.48H1989.84M1918.77 1280.54V1351.61M1918.77 1280.54H1989.84M1918.77 1351.61V1422.68M1918.77 1351.61H1989.84M1918.77 1422.68H1989.84M1989.84 1.32031V72.3883M1989.84 1.32031H2060.9M1989.84 72.3883V143.456M1989.84 72.3883H2060.9M1989.84 143.456V214.524M1989.84 143.456H2060.9M1989.84 214.524V285.592M1989.84 214.524H2060.9M1989.84 285.592V356.66M1989.84 285.592H2060.9M1989.84 356.66V427.728M1989.84 356.66H2060.9M1989.84 427.728V498.796M1989.84 427.728H2060.9M1989.84 498.796V569.864M1989.84 498.796H2060.9M1989.84 569.864V640.932M1989.84 569.864H2060.9M1989.84 640.932V712M1989.84 640.932H2060.9M1989.84 712V783.068M1989.84 712H2060.9M1989.84 783.068V854.136M1989.84 783.068H2060.9M1989.84 854.136V925.204M1989.84 854.136H2060.9M1989.84 925.204V996.272M1989.84 925.204H2060.9M1989.84 996.272V1067.34M1989.84 996.272H2060.9M1989.84 1067.34V1138.41M1989.84 1067.34H2060.9M1989.84 1138.41V1209.48M1989.84 1138.41H2060.9M1989.84 1209.48V1280.54M1989.84 1209.48H2060.9M1989.84 1280.54V1351.61M1989.84 1280.54H2060.9M1989.84 1351.61V1422.68M1989.84 1351.61H2060.9M1989.84 1422.68H2060.9M2060.9 1.32031V72.3883M2060.9 1.32031H2131.97M2060.9 72.3883V143.456M2060.9 72.3883H2131.97M2060.9 143.456V214.524M2060.9 143.456H2131.97M2060.9 214.524V285.592M2060.9 214.524H2131.97M2060.9 285.592V356.66M2060.9 285.592H2131.97M2060.9 356.66V427.728M2060.9 356.66H2131.97M2060.9 427.728V498.796M2060.9 427.728H2131.97M2060.9 498.796V569.864M2060.9 498.796H2131.97M2060.9 569.864V640.932M2060.9 569.864H2131.97M2060.9 640.932V712M2060.9 640.932H2131.97M2060.9 712V783.068M2060.9 712H2131.97M2060.9 783.068V854.136M2060.9 783.068H2131.97M2060.9 854.136V925.204M2060.9 854.136H2131.97M2060.9 925.204V996.272M2060.9 925.204H2131.97M2060.9 996.272V1067.34M2060.9 996.272H2131.97M2060.9 1067.34V1138.41M2060.9 1067.34H2131.97M2060.9 1138.41V1209.48M2060.9 1138.41H2131.97M2060.9 1209.48V1280.54M2060.9 1209.48H2131.97M2060.9 1280.54V1351.61M2060.9 1280.54H2131.97M2060.9 1351.61V1422.68M2060.9 1351.61H2131.97M2060.9 1422.68H2131.97M2131.97 1.32031V72.3883M2131.97 1.32031H2203.04M2131.97 72.3883V143.456M2131.97 72.3883H2203.04M2131.97 143.456V214.524M2131.97 143.456H2203.04M2131.97 214.524V285.592M2131.97 214.524H2203.04M2131.97 285.592V356.66M2131.97 285.592H2203.04M2131.97 356.66V427.728M2131.97 356.66H2203.04M2131.97 427.728V498.796M2131.97 427.728H2203.04M2131.97 498.796V569.864M2131.97 498.796H2203.04M2131.97 569.864V640.932M2131.97 569.864H2203.04M2131.97 640.932V712M2131.97 640.932H2203.04M2131.97 712V783.068M2131.97 712H2203.04M2131.97 783.068V854.136M2131.97 783.068H2203.04M2131.97 854.136V925.204M2131.97 854.136H2203.04M2131.97 925.204V996.272M2131.97 925.204H2203.04M2131.97 996.272V1067.34M2131.97 996.272H2203.04M2131.97 1067.34V1138.41M2131.97 1067.34H2203.04M2131.97 1138.41V1209.48M2131.97 1138.41H2203.04M2131.97 1209.48V1280.54M2131.97 1209.48H2203.04M2131.97 1280.54V1351.61M2131.97 1280.54H2203.04M2131.97 1351.61V1422.68M2131.97 1351.61H2203.04M2131.97 1422.68H2203.04M2203.04 1.32031V72.3883M2203.04 1.32031H2274.11M2203.04 72.3883V143.456M2203.04 72.3883H2274.11M2203.04 143.456V214.524M2203.04 143.456H2274.11M2203.04 214.524V285.592M2203.04 214.524H2274.11M2203.04 285.592V356.66M2203.04 285.592H2274.11M2203.04 356.66V427.728M2203.04 356.66H2274.11M2203.04 427.728V498.796M2203.04 427.728H2274.11M2203.04 498.796V569.864M2203.04 498.796H2274.11M2203.04 569.864V640.932M2203.04 569.864H2274.11M2203.04 640.932V712M2203.04 640.932H2274.11M2203.04 712V783.068M2203.04 712H2274.11M2203.04 783.068V854.136M2203.04 783.068H2274.11M2203.04 854.136V925.204M2203.04 854.136H2274.11M2203.04 925.204V996.272M2203.04 925.204H2274.11M2203.04 996.272V1067.34M2203.04 996.272H2274.11M2203.04 1067.34V1138.41M2203.04 1067.34H2274.11M2203.04 1138.41V1209.48M2203.04 1138.41H2274.11M2203.04 1209.48V1280.54M2203.04 1209.48H2274.11M2203.04 1280.54V1351.61M2203.04 1280.54H2274.11M2203.04 1351.61V1422.68M2203.04 1351.61H2274.11M2203.04 1422.68H2274.11M2274.11 1.32031V72.3883M2274.11 1.32031H2345.18M2274.11 72.3883V143.456M2274.11 72.3883H2345.18M2274.11 143.456V214.524M2274.11 143.456H2345.18M2274.11 214.524V285.592M2274.11 214.524H2345.18M2274.11 285.592V356.66M2274.11 285.592H2345.18M2274.11 356.66V427.728M2274.11 356.66H2345.18M2274.11 427.728V498.796M2274.11 427.728H2345.18M2274.11 498.796V569.864M2274.11 498.796H2345.18M2274.11 569.864V640.932M2274.11 569.864H2345.18M2274.11 640.932V712M2274.11 640.932H2345.18M2274.11 712V783.068M2274.11 712H2345.18M2274.11 783.068V854.136M2274.11 783.068H2345.18M2274.11 854.136V925.204M2274.11 854.136H2345.18M2274.11 925.204V996.272M2274.11 925.204H2345.18M2274.11 996.272V1067.34M2274.11 996.272H2345.18M2274.11 1067.34V1138.41M2274.11 1067.34H2345.18M2274.11 1138.41V1209.48M2274.11 1138.41H2345.18M2274.11 1209.48V1280.54M2274.11 1209.48H2345.18M2274.11 1280.54V1351.61M2274.11 1280.54H2345.18M2274.11 1351.61V1422.68M2274.11 1351.61H2345.18M2274.11 1422.68H2345.18M2345.18 1.32031V72.3883M2345.18 1.32031H2416.24M2345.18 72.3883V143.456M2345.18 72.3883H2416.24M2345.18 143.456V214.524M2345.18 143.456H2416.24M2345.18 214.524V285.592M2345.18 214.524H2416.24M2345.18 285.592V356.66M2345.18 285.592H2416.24M2345.18 356.66V427.728M2345.18 356.66H2416.24M2345.18 427.728V498.796M2345.18 427.728H2416.24M2345.18 498.796V569.864M2345.18 498.796H2416.24M2345.18 569.864V640.932M2345.18 569.864H2416.24M2345.18 640.932V712M2345.18 640.932H2416.24M2345.18 712V783.068M2345.18 712H2416.24M2345.18 783.068V854.136M2345.18 783.068H2416.24M2345.18 854.136V925.204M2345.18 854.136H2416.24M2345.18 925.204V996.272M2345.18 925.204H2416.24M2345.18 996.272V1067.34M2345.18 996.272H2416.24M2345.18 1067.34V1138.41M2345.18 1067.34H2416.24M2345.18 1138.41V1209.48M2345.18 1138.41H2416.24M2345.18 1209.48V1280.54M2345.18 1209.48H2416.24M2345.18 1280.54V1351.61M2345.18 1280.54H2416.24M2345.18 1351.61V1422.68M2345.18 1351.61H2416.24M2345.18 1422.68H2416.24M2416.24 1.32031V72.3883M2416.24 1.32031H2487.31M2416.24 72.3883V143.456M2416.24 72.3883H2487.31M2416.24 143.456V214.524M2416.24 143.456H2487.31M2416.24 214.524V285.592M2416.24 214.524H2487.31M2416.24 285.592V356.66M2416.24 285.592H2487.31M2416.24 356.66V427.728M2416.24 356.66H2487.31M2416.24 427.728V498.796M2416.24 427.728H2487.31M2416.24 498.796V569.864M2416.24 498.796H2487.31M2416.24 569.864V640.932M2416.24 569.864H2487.31M2416.24 640.932V712M2416.24 640.932H2487.31M2416.24 712V783.068M2416.24 712H2487.31M2416.24 783.068V854.136M2416.24 783.068H2487.31M2416.24 854.136V925.204M2416.24 854.136H2487.31M2416.24 925.204V996.272M2416.24 925.204H2487.31M2416.24 996.272V1067.34M2416.24 996.272H2487.31M2416.24 1067.34V1138.41M2416.24 1067.34H2487.31M2416.24 1138.41V1209.48M2416.24 1138.41H2487.31M2416.24 1209.48V1280.54M2416.24 1209.48H2487.31M2416.24 1280.54V1351.61M2416.24 1280.54H2487.31M2416.24 1351.61V1422.68M2416.24 1351.61H2487.31M2416.24 1422.68H2487.31M2487.31 1.32031V72.3883M2487.31 1.32031H2558.38M2487.31 72.3883V143.456M2487.31 72.3883H2558.38M2487.31 143.456V214.524M2487.31 143.456H2558.38M2487.31 214.524V285.592M2487.31 214.524H2558.38M2487.31 285.592V356.66M2487.31 285.592H2558.38M2487.31 356.66V427.728M2487.31 356.66H2558.38M2487.31 427.728V498.796M2487.31 427.728H2558.38M2487.31 498.796V569.864M2487.31 498.796H2558.38M2487.31 569.864V640.932M2487.31 569.864H2558.38M2487.31 640.932V712M2487.31 640.932H2558.38M2487.31 712V783.068M2487.31 712H2558.38M2487.31 783.068V854.136M2487.31 783.068H2558.38M2487.31 854.136V925.204M2487.31 854.136H2558.38M2487.31 925.204V996.272M2487.31 925.204H2558.38M2487.31 996.272V1067.34M2487.31 996.272H2558.38M2487.31 1067.34V1138.41M2487.31 1067.34H2558.38M2487.31 1138.41V1209.48M2487.31 1138.41H2558.38M2487.31 1209.48V1280.54M2487.31 1209.48H2558.38M2487.31 1280.54V1351.61M2487.31 1280.54H2558.38M2487.31 1351.61V1422.68M2487.31 1351.61H2558.38M2487.31 1422.68H2558.38M2558.38 1.32031V72.3883M2558.38 1.32031H2629.45M2558.38 72.3883V143.456M2558.38 72.3883H2629.45M2558.38 143.456V214.524M2558.38 143.456H2629.45M2558.38 214.524V285.592M2558.38 214.524H2629.45M2558.38 285.592V356.66M2558.38 285.592H2629.45M2558.38 356.66V427.728M2558.38 356.66H2629.45M2558.38 427.728V498.796M2558.38 427.728H2629.45M2558.38 498.796V569.864M2558.38 498.796H2629.45M2558.38 569.864V640.932M2558.38 569.864H2629.45M2558.38 640.932V712M2558.38 640.932H2629.45M2558.38 712V783.068M2558.38 712H2629.45M2558.38 783.068V854.136M2558.38 783.068H2629.45M2558.38 854.136V925.204M2558.38 854.136H2629.45M2558.38 925.204V996.272M2558.38 925.204H2629.45M2558.38 996.272V1067.34M2558.38 996.272H2629.45M2558.38 1067.34V1138.41M2558.38 1067.34H2629.45M2558.38 1138.41V1209.48M2558.38 1138.41H2629.45M2558.38 1209.48V1280.54M2558.38 1209.48H2629.45M2558.38 1280.54V1351.61M2558.38 1280.54H2629.45M2558.38 1351.61V1422.68M2558.38 1351.61H2629.45M2558.38 1422.68H2629.45M2629.45 1.32031V72.3883M2629.45 1.32031H2700.52M2629.45 72.3883V143.456M2629.45 72.3883H2700.52M2629.45 143.456V214.524M2629.45 143.456H2700.52M2629.45 214.524V285.592M2629.45 214.524H2700.52M2629.45 285.592V356.66M2629.45 285.592H2700.52M2629.45 356.66V427.728M2629.45 356.66H2700.52M2629.45 427.728V498.796M2629.45 427.728H2700.52M2629.45 498.796V569.864M2629.45 498.796H2700.52M2629.45 569.864V640.932M2629.45 569.864H2700.52M2629.45 640.932V712M2629.45 640.932H2700.52M2629.45 712V783.068M2629.45 712H2700.52M2629.45 783.068V854.136M2629.45 783.068H2700.52M2629.45 854.136V925.204M2629.45 854.136H2700.52M2629.45 925.204V996.272M2629.45 925.204H2700.52M2629.45 996.272V1067.34M2629.45 996.272H2700.52M2629.45 1067.34V1138.41M2629.45 1067.34H2700.52M2629.45 1138.41V1209.48M2629.45 1138.41H2700.52M2629.45 1209.48V1280.54M2629.45 1209.48H2700.52M2629.45 1280.54V1351.61M2629.45 1280.54H2700.52M2629.45 1351.61V1422.68M2629.45 1351.61H2700.52M2629.45 1422.68H2700.52M2700.52 1.32031V72.3883M2700.52 1.32031H2771.58M2700.52 72.3883V143.456M2700.52 72.3883H2771.58M2700.52 143.456V214.524M2700.52 143.456H2771.58M2700.52 214.524V285.592M2700.52 214.524H2771.58M2700.52 285.592V356.66M2700.52 285.592H2771.58M2700.52 356.66V427.728M2700.52 356.66H2771.58M2700.52 427.728V498.796M2700.52 427.728H2771.58M2700.52 498.796V569.864M2700.52 498.796H2771.58M2700.52 569.864V640.932M2700.52 569.864H2771.58M2700.52 640.932V712M2700.52 640.932H2771.58M2700.52 712V783.068M2700.52 712H2771.58M2700.52 783.068V854.136M2700.52 783.068H2771.58M2700.52 854.136V925.204M2700.52 854.136H2771.58M2700.52 925.204V996.272M2700.52 925.204H2771.58M2700.52 996.272V1067.34M2700.52 996.272H2771.58M2700.52 1067.34V1138.41M2700.52 1067.34H2771.58M2700.52 1138.41V1209.48M2700.52 1138.41H2771.58M2700.52 1209.48V1280.54M2700.52 1209.48H2771.58M2700.52 1280.54V1351.61M2700.52 1280.54H2771.58M2700.52 1351.61V1422.68M2700.52 1351.61H2771.58M2700.52 1422.68H2771.58M2771.58 1.32031V72.3883M2771.58 1.32031H2842.65M2771.58 72.3883V143.456M2771.58 72.3883H2842.65M2771.58 143.456V214.524M2771.58 143.456H2842.65M2771.58 214.524V285.592M2771.58 214.524H2842.65M2771.58 285.592V356.66M2771.58 285.592H2842.65M2771.58 356.66V427.728M2771.58 356.66H2842.65M2771.58 427.728V498.796M2771.58 427.728H2842.65M2771.58 498.796V569.864M2771.58 498.796H2842.65M2771.58 569.864V640.932M2771.58 569.864H2842.65M2771.58 640.932V712M2771.58 640.932H2842.65M2771.58 712V783.068M2771.58 712H2842.65M2771.58 783.068V854.136M2771.58 783.068H2842.65M2771.58 854.136V925.204M2771.58 854.136H2842.65M2771.58 925.204V996.272M2771.58 925.204H2842.65M2771.58 996.272V1067.34M2771.58 996.272H2842.65M2771.58 1067.34V1138.41M2771.58 1067.34H2842.65M2771.58 1138.41V1209.48M2771.58 1138.41H2842.65M2771.58 1209.48V1280.54M2771.58 1209.48H2842.65M2771.58 1280.54V1351.61M2771.58 1280.54H2842.65M2771.58 1351.61V1422.68M2771.58 1351.61H2842.65M2771.58 1422.68H2842.65M2842.65 1.32031V72.3883M2842.65 1.32031H2913.72M2842.65 72.3883V143.456M2842.65 72.3883H2913.72M2842.65 143.456V214.524M2842.65 143.456H2913.72M2842.65 214.524V285.592M2842.65 214.524H2913.72M2842.65 285.592V356.66M2842.65 285.592H2913.72M2842.65 356.66V427.728M2842.65 356.66H2913.72M2842.65 427.728V498.796M2842.65 427.728H2913.72M2842.65 498.796V569.864M2842.65 498.796H2913.72M2842.65 569.864V640.932M2842.65 569.864H2913.72M2842.65 640.932V712M2842.65 640.932H2913.72M2842.65 712V783.068M2842.65 712H2913.72M2842.65 783.068V854.136M2842.65 783.068H2913.72M2842.65 854.136V925.204M2842.65 854.136H2913.72M2842.65 925.204V996.272M2842.65 925.204H2913.72M2842.65 996.272V1067.34M2842.65 996.272H2913.72M2842.65 1067.34V1138.41M2842.65 1067.34H2913.72M2842.65 1138.41V1209.48M2842.65 1138.41H2913.72M2842.65 1209.48V1280.54M2842.65 1209.48H2913.72M2842.65 1280.54V1351.61M2842.65 1280.54H2913.72M2842.65 1351.61V1422.68M2842.65 1351.61H2913.72M2842.65 1422.68H2913.72M2913.72 1.32031V72.3883M2913.72 1.32031H2984.79M2913.72 72.3883V143.456M2913.72 72.3883H2984.79M2913.72 143.456V214.524M2913.72 143.456H2984.79M2913.72 214.524V285.592M2913.72 214.524H2984.79M2913.72 285.592V356.66M2913.72 285.592H2984.79M2913.72 356.66V427.728M2913.72 356.66H2984.79M2913.72 427.728V498.796M2913.72 427.728H2984.79M2913.72 498.796V569.864M2913.72 498.796H2984.79M2913.72 569.864V640.932M2913.72 569.864H2984.79M2913.72 640.932V712M2913.72 640.932H2984.79M2913.72 712V783.068M2913.72 712H2984.79M2913.72 783.068V854.136M2913.72 783.068H2984.79M2913.72 854.136V925.204M2913.72 854.136H2984.79M2913.72 925.204V996.272M2913.72 925.204H2984.79M2913.72 996.272V1067.34M2913.72 996.272H2984.79M2913.72 1067.34V1138.41M2913.72 1067.34H2984.79M2913.72 1138.41V1209.48M2913.72 1138.41H2984.79M2913.72 1209.48V1280.54M2913.72 1209.48H2984.79M2913.72 1280.54V1351.61M2913.72 1280.54H2984.79M2913.72 1351.61V1422.68M2913.72 1351.61H2984.79M2913.72 1422.68H2984.79M2984.79 1.32031V72.3883M2984.79 1.32031H3055.86M2984.79 72.3883V143.456M2984.79 72.3883H3055.86M2984.79 143.456V214.524M2984.79 143.456H3055.86M2984.79 214.524V285.592M2984.79 214.524H3055.86M2984.79 285.592V356.66M2984.79 285.592H3055.86M2984.79 356.66V427.728M2984.79 356.66H3055.86M2984.79 427.728V498.796M2984.79 427.728H3055.86M2984.79 498.796V569.864M2984.79 498.796H3055.86M2984.79 569.864V640.932M2984.79 569.864H3055.86M2984.79 640.932V712M2984.79 640.932H3055.86M2984.79 712V783.068M2984.79 712H3055.86M2984.79 783.068V854.136M2984.79 783.068H3055.86M2984.79 854.136V925.204M2984.79 854.136H3055.86M2984.79 925.204V996.272M2984.79 925.204H3055.86M2984.79 996.272V1067.34M2984.79 996.272H3055.86M2984.79 1067.34V1138.41M2984.79 1067.34H3055.86M2984.79 1138.41V1209.48M2984.79 1138.41H3055.86M2984.79 1209.48V1280.54M2984.79 1209.48H3055.86M2984.79 1280.54V1351.61M2984.79 1280.54H3055.86M2984.79 1351.61V1422.68M2984.79 1351.61H3055.86M2984.79 1422.68H3055.86M3055.86 1.32031V72.3883M3055.86 1.32031H3126.92V72.3883M3055.86 72.3883V143.456M3055.86 72.3883H3126.92M3055.86 143.456V214.524M3055.86 143.456H3126.92M3055.86 214.524V285.592M3055.86 214.524H3126.92M3055.86 285.592V356.66M3055.86 285.592H3126.92M3055.86 356.66V427.728M3055.86 356.66H3126.92M3055.86 427.728V498.796M3055.86 427.728H3126.92M3055.86 498.796V569.864M3055.86 498.796H3126.92M3055.86 569.864V640.932M3055.86 569.864H3126.92M3055.86 640.932V712M3055.86 640.932H3126.92M3055.86 712V783.068M3055.86 712H3126.92M3055.86 783.068V854.136M3055.86 783.068H3126.92M3055.86 854.136V925.204M3055.86 854.136H3126.92M3055.86 925.204V996.272M3055.86 925.204H3126.92M3055.86 996.272V1067.34M3055.86 996.272H3126.92M3055.86 1067.34V1138.41M3055.86 1067.34H3126.92M3055.86 1138.41V1209.48M3055.86 1138.41H3126.92M3055.86 1209.48V1280.54M3055.86 1209.48H3126.92M3055.86 1280.54V1351.61M3055.86 1280.54H3126.92M3055.86 1351.61V1422.68M3055.86 1351.61H3126.92M3055.86 1422.68H3126.92V1351.61M3126.92 72.3883V143.456M3126.92 143.456V214.524M3126.92 214.524V285.592M3126.92 285.592V356.66M3126.92 356.66V427.728M3126.92 427.728V498.796M3126.92 498.796V569.864M3126.92 569.864V640.932M3126.92 640.932V712M3126.92 712V783.068M3126.92 783.068V854.136M3126.92 854.136V925.204M3126.92 925.204V996.272M3126.92 996.272V1067.34M3126.92 1067.34V1138.41M3126.92 1138.41V1209.48M3126.92 1209.48V1280.54M3126.92 1280.54V1351.61" stroke="#5023FF" stroke-width="0.804612"/>
</svg>
