<svg width="2644" height="1885" viewBox="0 0 2644 1885" fill="white" xmlns="http://www.w3.org/2000/svg">
<path d="M2642.92 -379V59.0117L2498.24 -85.6702V-379H2495.58L2496.03 -378.548V-87.8846L2351.35 -232.566V-379H2349.15V-232.566L2204.46 -87.8846V-379H1320.92V-232.566L1176.24 -87.8846V-379H1173.58L1029.35 -234.77V-379H1027.15V-232.566L882.464 -87.8846V-379H0V62.7683H438.015L293.332 207.45H0V210.105L0.451687 209.654H291.118L146.435 354.335H0V356.539H146.435L291.118 501.221H0V503.424H291.118L146.435 648.106H0V650.309H144.231L0 794.55V797.205H291.118L146.435 941.887H0V2264.99H882.442V1973.87L1027.13 2118.56V2264.99H1029.33V2118.56L1174.01 1973.87V2264.54L1173.56 2264.99H1176.22V1971.67L1320.9 1826.99V2265H2204.44V2118.57L2204.89 2118.11L2204.44 2117.66V1973.88L2349.13 2118.57V2265H2351.33V2120.77L2495.56 2265H2498.22V1973.88L2642.9 2118.57V2265H2644V941.898H2205.98L2350.67 797.217H2643.99V794.562L2643.54 795.013H2352.87L2497.55 650.331H2643.99V648.128H2497.55L2352.87 503.446H2643.99V501.243H2352.87L2497.55 356.561H2643.99V354.357H2499.76L2643.99 210.127V207.472H2352.87L2497.55 62.7904H2643.99V-379H2642.89H2642.92ZM2350.24 -230.55L2496.02 -84.7669V60.565H2204.44V-84.7669L2350.23 -230.55H2350.24ZM2498.23 -82.5635L2641.36 60.565H2498.23V-82.5635ZM1616.25 2117.01L1471.56 1972.33H1762.23L1906.91 2117.01H1616.25ZM1030.89 1823.23L1175.58 1678.55H1468.45L1613.13 1823.23H1030.89ZM733.992 2117.01H443.325L588.008 1972.33H878.675L733.992 2117.01ZM147.988 1237.23L292.671 1092.55V1383.21L147.988 1527.9V1237.23ZM438.004 944.102L294.875 1087.23V944.102H438.004ZM441.772 648.767V355.9L586.455 211.218V795.663L441.772 940.345V649.681L442.224 649.23L441.772 648.778V648.767ZM878.686 -86.3202H588.019L443.336 -231.002H734.003L878.686 -86.3202ZM1469.36 -231.002H1760.03L1615.34 -86.3202H1324.68L1469.36 -231.002ZM2202.9 1091L2347.58 1235.68H2056.92L1912.23 1091H2202.9ZM2054.91 1236.78L1909.13 1382.57H1763.79V1090.99H1909.13L2054.91 1236.77V1236.78ZM2202.26 1971.68V2115.46L1912.24 1825.45H2202.26V1970.78L2201.81 1971.23L2202.26 1971.68ZM1616.26 1823.23L1470.47 1677.45L1616.26 1531.66H1761.59V1823.24H1616.26V1823.23ZM1468.46 1676.35H1177.79L1322.47 1531.66H1613.14L1468.46 1676.35ZM294.247 1970.13L149.564 1825.45H731.799L587.116 1970.13H294.247ZM439.58 1533.22V1823.23H149.564L439.58 1533.22ZM1323.11 -82.5635L1466.24 60.565H1323.11V-82.5635ZM1909.12 -84.1169L2053.8 60.565H1471.56L1616.25 -84.1169H1909.12ZM2202.25 355.9V648.767L2057.57 793.449V209.004L2202.25 64.3217V354.985L2201.8 355.437L2202.25 355.889V355.9ZM1618.45 1529.45L1761.58 1386.32V1529.45H1618.45ZM1030.89 1529.45L1175.58 1384.77H1323.11H1760.03L1615.34 1529.45H1030.89ZM735.556 1823.23V1680.1L878.686 1823.23H735.556ZM880.239 1825.44V1968.56L737.109 1825.44H880.239ZM733.353 1823.23H441.772V1677.9L587.557 1532.12L733.342 1677.9V1823.23H733.353ZM735.556 355.9L880.239 211.218V501.232V793.449L735.556 648.767V355.9ZM1028.24 63.22L1028.69 62.7683H1468.45L1613.13 207.45H1028.68L883.996 62.7683H1027.78L1028.23 63.22H1028.24ZM1910.68 940.334V649.67L2055.36 504.988V795.652L1910.68 940.334ZM586.466 1530.09L441.783 1674.77V1092.53L586.466 1237.21V1530.08V1530.09ZM584.913 944.091L441.783 1087.22V944.091H584.913ZM442.246 1089.87L586.477 945.644V1234.1L442.246 1089.87ZM882.464 941.887V651.874L1027.15 796.555V1089.42L882.464 1234.1V941.887ZM1025.59 207.439H882.464V64.3107L1025.59 207.439ZM882.464 209.643H1027.8L1173.58 355.426L1027.8 501.21H882.464V209.632V209.643ZM1908.49 648.756L1763.81 793.438V355.889L1764.26 355.437L1763.81 354.985V211.207L1908.49 355.889V648.756ZM1908.49 940.334L1764.26 796.104L1908.49 651.874V940.334ZM1761.6 1381L1616.92 1236.32V651.874L1761.15 796.104L1761.6 796.555V941.887V1380.99V1381ZM1175.6 356.539H1468.47L1613.15 501.221H1469.38L1468.93 500.769L1468.48 501.221H1320.94H1030.93L1175.61 356.539H1175.6ZM1614.72 940.334L1470.03 795.652V504.988L1614.72 649.67V940.334ZM1176.25 649.67L1320.93 504.988V648.756L1320.48 649.208L1320.93 649.659V942.978V1089.41L1176.25 1234.09V649.648V649.67ZM1319.38 503.424L1176.25 646.552V503.424H1319.38ZM1320.93 1092.54V1382.55H1030.92L1320.93 1092.54ZM1323.13 503.424H1466.26L1323.13 646.552V503.424ZM1467.82 504.977V793.438L1323.59 649.208L1467.82 504.977ZM1471.59 503.424H1615.35L1615.81 503.876L1616.26 503.424H1761.59V793.438L1471.57 503.424H1471.59ZM1618.47 501.221L1761.6 358.092V501.221H1618.47ZM1615.81 500.769L1471.57 356.539H1760.04L1615.81 500.769ZM1174.03 503.424V648.756L1028.25 794.539L882.464 648.756V503.424H1174.04H1174.03ZM1029.35 796.555L1174.03 651.874V942.537L1029.35 1087.22V796.555ZM1174.03 945.644V1236.31L1029.35 1380.99V1090.33L1174.03 945.644ZM1027.15 1380.99L882.916 1236.76L1027.15 1092.53V1380.99ZM1025.59 1382.54H882.464V1239.41L1025.59 1382.54ZM1323.13 942.978V651.863L1467.82 796.545V1089.41L1323.13 1234.09V942.978ZM1470.02 798.748L1614.7 943.43V1234.09L1470.02 1089.41V798.748ZM1761.6 62.7463V352.76L1471.59 62.7463H1761.6ZM1760.05 354.324H1469.38L1324.7 209.643H1615.37L1760.05 354.324ZM1321.58 209.643L1466.26 354.324H1175.6L1030.92 209.643H1321.58ZM1323.13 1237.22L1468.92 1091.44L1614.7 1237.22V1382.55H1323.12V1237.22H1323.13ZM1616.92 1239.43L1760.05 1382.55H1616.92V1239.43ZM1763.81 798.759L1906.93 941.887H1763.81V798.759ZM2055.39 501.86L1910.7 646.542V355.878L2055.39 211.196V501.86ZM1909.6 353.873L1763.82 208.089V62.7573H2055.4V208.089L1909.61 353.873H1909.6ZM880.272 205.886L737.142 62.7573H880.272V205.886ZM735.589 64.3217L879.82 208.552L735.589 352.782V64.3217ZM588.703 1530.09V1239.43L733.386 1384.11V1674.77L588.703 1530.09ZM733.386 1381L588.703 1236.32V945.655L733.386 1090.34V1381ZM590.256 944.091H880.272V1234.1L590.256 944.091ZM1027.81 1384.76L1028.26 1385.21L1028.71 1384.76H1172.48L882.464 1674.77V1384.76H1027.8H1027.81ZM1912.27 941.887L2202.28 651.874V941.887H1912.27ZM2057.6 205.886V62.7573H2200.73L2057.6 205.886ZM1468.94 60.1023L1324.71 -84.1279H1613.17L1468.94 60.1023ZM737.153 60.554L880.283 -82.5745V60.554H737.153ZM734.498 60.1023L590.267 -84.1279H878.73L734.498 60.1023ZM731.843 62.7573L441.827 352.771V62.7573H731.843ZM733.397 64.3107V354.974L588.714 499.656V208.993L733.397 64.3107ZM588.714 502.774L733.397 358.092V648.756L588.714 793.438V502.774ZM734.498 650.761L880.283 796.545V941.876H588.703V796.545L734.487 650.761H734.498ZM586.51 941.876H443.38L586.51 798.748V941.876ZM734.498 1825.86L878.73 1970.09H590.267L734.498 1825.86ZM735.6 1676.96V1092.53L879.831 1236.76L880.283 1237.21V1384.75V1676.96L879.831 1677.42L880.283 1677.87V1821.65L735.6 1676.96ZM884.051 1676.31L1028.73 1531.63H1319.4L1174.72 1676.31H884.051ZM1172.51 1678.52L1028.28 1822.75L884.051 1678.52H1172.51ZM1763.84 1823.2V1533.18L2053.85 1823.2H1763.84ZM1765.39 1531.62H2056.06L2200.74 1676.3H1910.07L1765.39 1531.62ZM1765.39 1529.42L1909.62 1385.19L2053.85 1529.42H1765.39ZM1763.84 1527.86V1384.74H1906.97L1763.84 1527.86ZM1763.84 1088.75V945.622L1906.97 1088.75H1763.84ZM2202.25 -233.216H2059.12L2202.25 -376.345V-233.216ZM2202.25 -231.013V60.565H2056.92L1911.13 -85.2185L2056.92 -231.002H2202.25V-231.013ZM1909.12 -86.3312H1618.45L1763.13 -231.013H2053.8L1909.12 -86.3312ZM882.442 60.554V-82.5745L1025.57 60.554H882.442ZM440.219 -231.013L584.902 -86.3312H294.236L149.553 -231.013H440.219ZM294.236 -84.1279H587.105L731.788 60.554H149.553L294.236 -84.1279ZM439.569 945.655V1089.43L439.117 1089.89L439.569 1090.34V1530.09L294.886 1674.77V1090.33L439.569 945.644V945.655ZM292.682 1386.32V1676.99L147.999 1821.67V1531L292.682 1386.32ZM145.796 1821.67L1.55336 1677.45L145.785 1533.22V1821.68L145.796 1821.67ZM292.231 1971.22L146.446 2117H1.10168V1825.42H146.435L292.22 1971.21L292.231 1971.22ZM294.247 1972.32H584.913L440.23 2117H149.553L294.236 1972.32H294.247ZM882.453 1680.1L1025.58 1823.23H882.453V1680.1ZM1323.12 1826.99L1466.25 1970.12H1323.12V1826.99ZM1324.68 1825.44H1761.59H1909.13L2053.81 1970.12H1469.37L1324.69 1825.44H1324.68ZM1765.35 1972.32H2056.01L2200.7 2117H1910.03L1765.35 1972.32ZM2200.7 2119.21L2056.47 2263.44L1912.23 2119.21H2200.7ZM2350.7 1823.22L2350.25 1822.77L2349.8 1823.22H2056.93L1912.24 1678.54H2496.7L2641.38 1823.22H2350.71H2350.7ZM2203.81 1676.34L2059.13 1531.65H2349.8L2494.48 1676.34H2203.81ZM2349.8 1529.45H2056.93L1912.24 1384.77H2494.48L2349.8 1529.45ZM1912.24 1382.57L2056.93 1237.88H2349.8L2494.48 1382.57H1912.23H1912.24ZM2352.92 1237.88H2641.38L2497.15 1382.11L2352.92 1237.88ZM2350.71 1235.68L2206.03 1091H2496.7L2641.38 1235.68H2350.71ZM1910.04 1088.79L1765.36 944.113H1909.14L1909.59 944.564L1910.04 944.113H2349.8L2494.48 1088.79H1910.04ZM2056.02 -233.205H1471.57L1616.25 -377.898H2200.7L2056.01 -233.216L2056.02 -233.205ZM1613.13 -377.898L1323.11 -87.8846V-377.898H1613.13ZM1320.91 -85.6812L1320.46 -85.2296L1320.91 -84.7779V60.554H1030.89L1320.91 -229.46V-85.6812ZM1174.02 -376.345V-85.6812L1029.34 59.0006V-231.652L1174.02 -376.345ZM1027.14 -229.46V59.0006L882.905 -85.2296L1027.14 -229.46ZM880.239 -377.898V-87.8846L590.223 -377.898H880.239ZM587.105 -377.898L731.788 -233.216H147.349L2.65504 -377.898H587.094H587.105ZM144.231 -233.216H1.10168V-376.345L144.231 -233.216ZM1.10168 -231.013H146.435L292.22 -85.2296L146.435 60.554H1.10168V-231.013ZM439.569 64.3217V207.45H296.439L439.569 64.3217ZM294.236 209.654H439.569V501.232H294.236L293.784 500.78L148.451 355.448L294.236 209.665V209.654ZM439.569 503.435V646.563L296.439 503.435H439.569ZM293.784 503.887L438.015 648.117H149.553L293.784 503.887ZM2.65504 795.013L147.338 650.331H438.004L293.321 795.013H2.65504ZM439.569 651.885V941.898H149.553L439.569 651.885ZM292.682 944.102V1089.43L146.897 1235.22L1.10168 1089.43V944.102H292.682ZM1.10168 1092.55L145.785 1237.23V1530.1L1.10168 1674.78V1092.54V1092.55ZM144.231 1823.23H1.10168V1680.1L144.231 1823.23ZM1.10168 2119.22H144.231L1.10168 2262.35V2119.22ZM147.349 2119.22H731.788L587.105 2263.9H2.65504L147.338 2119.22H147.349ZM590.223 2263.9L880.239 1973.88V2263.9H590.223ZM1028.24 2116.55L882.905 1971.22L882.453 1970.77V1825.44H1027.79L1028.24 1825.89L1028.69 1825.44H1174.02V1970.77L1028.24 2116.55ZM1176.23 1825.44H1319.36L1176.23 1968.56V1825.44ZM1323.11 1972.32H1468.45L1614.23 2118.1L1468.45 2263.89H1323.11V1972.31V1972.32ZM1471.56 2263.9L1616.25 2119.22H1909.12L2053.8 2263.9H1471.55H1471.56ZM2059.12 2263.9L2202.25 2120.77V2263.9H2059.12ZM2204.45 1825.44H2347.58L2204.45 1968.56V1825.44ZM2204.91 1971.22L2349.14 1826.99V2115.45L2204.91 1971.22ZM2496.02 2262.33L2351.34 2117.65V1826.99L2496.02 1971.67V2262.33ZM2642.91 2115.45L2352.89 1825.44H2642.91V2115.45ZM2642.91 1821.68L2499.78 1678.55H2642.91V1821.68ZM2497.58 1676.35L2351.79 1530.56L2497.58 1384.78H2642.91V1676.36H2497.58V1676.35ZM2642.91 1382.57H2499.78L2642.91 1239.44V1382.57ZM2352.89 944.102H2642.91V1234.12L2352.89 944.102ZM2204.44 940.334V797.205H2347.57L2204.44 940.334ZM2349.78 795.002H2204.44V503.424H2349.78L2350.23 503.876L2495.56 649.208L2349.78 794.991V795.002ZM2204.44 501.221V358.092L2347.57 501.221H2204.44ZM2350.23 500.769L2206 356.539H2494.46L2350.23 500.769ZM2641.34 209.654L2496.66 354.335H2206L2350.68 209.654H2641.34ZM2204.43 352.782V62.7683H2494.45L2204.43 352.782Z" fill="url(#paint0_radial_189_247)"/>
<defs>
<radialGradient id="paint0_radial_189_247" cx="0" cy="0" r="1" gradientUnits="userSpaceOnUse" gradientTransform="translate(1282.86 943) scale(1294.64 1294.63)">
<stop/>
<stop offset="1" stop-opacity="0"/>
</radialGradient>
</defs>
</svg>
