<svg xmlns="http://www.w3.org/2000/svg" viewBox="0 0 16 16" fill="#000000" id="Github-Logo-Fill--Streamline-Phosphor-Fill" height="16" width="16"><desc>Github Logo Fill Streamline Icon: https://streamlinehq.com</desc><path d="M15.83999375 5.9674125v0.58074375c-0.002525 2.0318625 -1.503375 3.750525 -3.51638125 4.02670625 0.3973625 0.50848125 0.61305625 1.1353625 0.61268125 1.78069375v2.90370625c0 0.32073125 -0.26000625 0.5807375 -0.58074375 0.5807375h-4.64591875c-0.3207375 0 -0.58074375 -0.26000625 -0.58074375 -0.5807375v-1.16148125H5.38666875c-1.60371875 0.00006875 -2.9037 -1.29998125 -2.9037 -2.90370625 0 -0.9622 -0.78001875 -1.74221875 -1.742225 -1.74221875 -0.44705 -0.0004625 -0.72595625 -0.48470625 -0.50203125 -0.87163125 0.1037125 -0.1792 0.2949875 -0.2896375 0.50203125 -0.28985 1.603725 -0.00006875 2.90370625 1.29998125 2.90370625 2.9037 0 0.96220625 0.78001875 1.742225 1.74221875 1.742225h1.74221875v-0.58074375c-0.00036875 -0.64533125 0.21531875 -1.2722125 0.61268125 -1.78069375 -2.01300625 -0.27618125 -3.51385625 -1.99484375 -3.51638125 -4.02670625v-0.58074375c0.00723125 -0.72173125 0.19943125 -1.42955 0.5582375 -2.05581875 -0.35886875 -1.15765625 -0.2172625 -2.4126375 0.39055 -3.4612125 0.1037625 -0.179725 0.2955375 -0.29041875 0.5030625 -0.29036875 1.37161875 -0.002875 2.66376875 0.6432 3.48444375 1.74221875h1.74221875C11.724375 0.8032125 13.016525 0.1571375 14.38814375 0.1600125c0.207525 -0.00005 0.39930625 0.11064375 0.50306875 0.29036875 0.6079125 1.04856875 0.74926875 2.30369375 0.38981875 3.4612125 0.35948125 0.62601875 0.55196875 1.33395625 0.5589625 2.05581875Z" stroke-width="0.0625"></path></svg>